<svg width="377" height="121" viewBox="0 0 377 121" fill="none" xmlns="http://www.w3.org/2000/svg">
<g clip-path="url(#clip0_174_231)">
<path d="M180.906 58.8333C180.906 70.2065 173.922 75.5938 165.191 75.5938H159.847V68.7998H164.769C170.038 68.7998 173.545 65.9865 173.545 58.8783C173.545 51.7696 170.234 48.4027 164.619 48.4027C159.004 48.4027 155.346 51.7101 155.346 58.8032V87.3412H148.121V42.4468H155.406V46.2927H156.445C157.577 44.7953 159.054 43.5888 160.751 42.7739C162.447 41.9591 164.316 41.5596 166.199 41.6087C174.238 41.6087 180.966 47.4001 180.966 58.908L180.906 58.8333ZM133.113 55.9152L128.266 55.4362C124.458 55.0919 122.441 54.0596 122.441 51.8447C122.441 49.2257 125.014 47.7144 128.687 47.7144C132.36 47.7144 134.919 49.5101 135.13 52.0541H142.1C141.829 45.5743 136.756 41.5789 128.717 41.5789C120.679 41.5789 115.17 45.8587 115.17 52.1289C115.17 57.3666 118.497 60.7488 126.053 61.497L130.976 61.9908C133.986 62.2601 135.958 62.8736 135.958 65.7021C135.958 68.2609 134.092 70.1166 129.169 70.1166C124.653 70.1166 122.395 68.0664 121.643 65.328H114.116C114.869 71.5981 120.137 76.4618 129.244 76.4618C137.764 76.4618 143.319 71.9722 143.319 65.3577C143.319 59.5067 139.435 56.5437 133.188 55.9152H133.113ZM209.236 65.328C208.547 66.7706 207.442 67.9765 206.062 68.792C204.681 69.6078 203.087 69.9958 201.483 69.9072C196.155 69.9072 192.196 66.4652 192.196 59.0129C192.196 51.9195 195.869 47.9988 201.559 47.9988C202.612 47.9092 203.671 48.0388 204.67 48.3794C205.67 48.72 206.587 49.2636 207.363 49.9762C208.14 50.6886 208.757 51.5542 209.179 52.5175C209.599 53.4808 209.814 54.5206 209.808 55.5709H196.697V60.8086H216.943V57.3666C216.943 47.7891 210.576 41.5789 201.483 41.5789C193.024 41.5789 184.925 47.2953 184.925 59.0129C184.925 70.7301 193.024 76.4618 201.483 76.4618C204.881 76.5761 208.217 75.5353 210.94 73.5112C213.663 71.4871 215.611 68.6005 216.461 65.328H209.236ZM94.8334 41.5789C86.8704 41.5789 80.9091 45.7241 80.2167 52.0541H87.9088C88.4659 49.7195 90.6185 47.9988 94.6978 47.9988C99.9663 47.9988 101.712 50.7522 101.712 54.1194V65.4927C100.522 66.9881 99.0179 68.2075 97.3043 69.0656C95.5911 69.9238 93.7101 70.4 91.7925 70.4609C88.1797 70.4609 85.7714 68.7399 85.7714 65.6422C85.7714 62.5445 87.7133 60.8086 91.4462 60.8086H97.2718V55.5709H91.2507C82.9264 55.5709 78.2751 59.7161 78.2751 66.0464C78.2751 72.0321 82.7907 76.5216 90.197 76.5216C94.0101 76.4479 97.7007 75.169 100.734 72.8702H101.773V75.6987H108.983V53.3861C108.983 45.1853 103.368 41.5339 94.6978 41.5339L94.8334 41.5789ZM45.309 75.5938H52.5946V30.1007H45.309V75.5938ZM75.8665 42.3717H67.0003L56.2978 56.2142V60.5543L67.1809 75.5191H76.2128L63.493 58.3245L75.8665 42.3717ZM338.722 42.3717L332.7 55.5259C331.342 58.196 330.253 60.993 329.449 63.8762H328.41C327.559 61.0221 326.446 58.2518 325.083 55.6006L319.062 42.3717H311.024L325.038 72.2117L318.099 87.1764H325.866L346.669 42.2821L338.722 42.3717ZM309.519 42.3717H300.607L289.995 56.2142V60.5543L300.878 75.5191H309.91L297.145 58.3245L309.519 42.3717ZM263.938 55.8401L259.091 55.3615C255.283 55.0172 253.266 53.9845 253.266 51.7696C253.266 49.1509 255.825 47.6396 259.513 47.6396C263.201 47.6396 265.745 49.4354 265.955 51.9794H272.955C272.684 45.4995 267.611 41.5038 259.573 41.5038C251.535 41.5038 246.025 45.784 246.025 52.0541C246.025 57.2919 249.367 60.674 256.924 61.4222L261.846 61.9161C264.857 62.1853 266.828 62.7989 266.828 65.6273C266.828 68.1862 264.962 70.0418 260.04 70.0418C255.524 70.0418 253.266 67.9917 252.513 65.2532H244.987C245.739 71.5233 251.008 76.387 260.115 76.387C268.635 76.387 274.189 71.8974 274.189 65.283C274.189 59.4316 270.306 56.4689 264.059 55.8401H263.938ZM279.112 75.564H286.397V30.0708H279.112V75.564ZM230.912 46.218H229.873V42.3717H222.588V75.5938H229.873V58.2197C229.873 52.2337 232.628 48.8367 238.047 48.8367H242.669V41.5339H239.944C234.916 41.5339 232.779 43.4193 230.912 46.218Z" fill="#1D1D1B"/>
<path d="M353.825 75.5638H346.674V30.0708H353.825V75.5638Z" fill="#FF00E5"/>
<path d="M367.967 42.342H376.667L364.524 58.2944L377.009 75.4886H368.143L357.461 60.5242V56.1841L367.967 42.342Z" fill="#FF00E5"/>
<path d="M184.848 7.31667V0.165161L230.342 0.165163V7.31667H184.848Z" fill="#FF00E5"/>
<path d="M218.07 21.4571V30.1601L202.117 18.0144L184.923 30.4999V21.6344L199.888 10.9515H204.228L218.07 21.4571Z" fill="#FF00E5"/>
<path fill-rule="evenodd" clip-rule="evenodd" d="M15.1704 75.5644H22.3219V30.0708H15.1704V75.5644ZM45.1653 42.342H36.4624L25.9568 56.1848V60.5245L36.6397 75.4893H45.5052L33.0196 58.2948L45.1653 42.342Z" fill="#FF00E5"/>
<path d="M184.848 98.7544V105.906H230.342V98.7544H184.848Z" fill="#FF00E5"/>
<path d="M218.07 84.6139V75.9108L202.117 88.0566L184.922 75.5712V84.4367L199.887 95.1196H204.227L218.07 84.6139Z" fill="#FF00E5"/>
</g>
<defs>
<clipPath id="clip0_174_231">
<rect width="376.995" height="121" fill="white"/>
</clipPath>
</defs>
</svg>
