<svg width="373" height="110" viewBox="0 0 373 110" fill="none" xmlns="http://www.w3.org/2000/svg">
<path d="M170.848 60.478C170.848 72.2021 163.648 77.7556 154.648 77.7556H149.14V70.7519H154.214C159.645 70.7519 163.26 67.8519 163.26 60.5244C163.26 53.1964 159.847 49.7256 154.058 49.7256C148.271 49.7256 144.5 53.1351 144.5 60.4469V89.8653H137.051V43.586H144.562V47.5506H145.632C146.8 46.0069 148.322 44.7632 150.071 43.9232C151.82 43.0832 153.746 42.6714 155.688 42.722C163.974 42.722 170.91 48.6921 170.91 60.555L170.848 60.478ZM121.581 57.4699L116.584 56.9762C112.658 56.6212 110.579 55.557 110.579 53.2738C110.579 50.574 113.232 49.0161 117.019 49.0161C120.805 49.0161 123.443 50.8672 123.66 53.4897H130.844C130.565 46.81 125.336 42.6913 117.05 42.6913C108.763 42.6913 103.084 47.1032 103.084 53.5667C103.084 58.9661 106.513 62.4526 114.303 63.2239L119.377 63.7329C122.481 64.0105 124.513 64.643 124.513 67.5587C124.513 70.1965 122.589 72.1093 117.515 72.1093C112.86 72.1093 110.532 69.996 109.756 67.173H101.998C102.774 73.6366 108.205 78.6503 117.593 78.6503C126.375 78.6503 132.101 74.0222 132.101 67.2037C132.101 61.1722 128.098 58.1177 121.658 57.4699H121.581ZM200.052 67.173C199.342 68.6602 198.203 69.9032 196.78 70.7439C195.356 71.5849 193.713 71.9849 192.06 71.8935C186.567 71.8935 182.486 68.3453 182.486 60.6631C182.486 53.3509 186.273 49.3093 192.138 49.3093C193.223 49.2169 194.316 49.3505 195.346 49.7016C196.376 50.0527 197.321 50.613 198.121 51.3477C198.922 52.082 199.559 52.9743 199.993 53.9674C200.427 54.9604 200.648 56.0323 200.641 57.1149H187.126V62.5143H207.997V58.9661C207.997 49.0931 201.433 42.6913 192.06 42.6913C183.34 42.6913 174.991 48.5841 174.991 60.6631C174.991 72.7419 183.34 78.6503 192.06 78.6503C195.563 78.7681 199.002 77.6952 201.809 75.6087C204.616 73.5222 206.623 70.5465 207.5 67.173H200.052ZM82.1202 42.6913C73.9115 42.6913 67.7663 46.9644 67.0526 53.4897H74.982C75.5563 51.0831 77.7753 49.3093 81.9804 49.3093C87.4115 49.3093 89.2114 52.1476 89.2114 55.6187V67.3429C87.9844 68.8844 86.4338 70.1414 84.6673 71.026C82.9013 71.9106 80.9622 72.4015 78.9855 72.4643C75.2613 72.4643 72.7786 70.6902 72.7786 67.497C72.7786 64.3037 74.7804 62.5143 78.6285 62.5143H84.6339V57.1149H78.427C69.8459 57.1149 65.0511 61.388 65.0511 67.9136C65.0511 74.0839 69.7061 78.712 77.3408 78.712C81.2715 78.636 85.076 77.3176 88.203 74.948H89.2734V77.8637H96.7063V54.8628C96.7063 46.409 90.9185 42.6449 81.9804 42.6449L82.1202 42.6913ZM31.068 77.7556H38.5784V30.8591H31.068V77.7556ZM62.5682 43.5086H53.4285L42.3958 57.7781V62.2521L53.6147 77.6785H62.9252L49.813 59.9536L62.5682 43.5086ZM333.532 43.5086L327.325 57.0686C325.925 59.8211 324.802 62.7043 323.973 65.6765H322.903C322.025 62.7343 320.877 59.8786 319.473 57.1456L313.266 43.5086H304.98L319.427 74.2691L312.273 89.6955H320.28L341.725 43.4162L333.532 43.5086ZM303.428 43.5086H294.242L283.302 57.7781V62.2521L294.522 77.6785H303.832L290.673 59.9536L303.428 43.5086ZM256.442 57.3925L251.445 56.8991C247.519 56.5441 245.44 55.4796 245.44 53.1964C245.44 50.4969 248.078 48.939 251.88 48.939C255.681 48.939 258.304 50.7902 258.521 53.4126H265.737C265.457 46.7329 260.228 42.6139 251.942 42.6139C243.656 42.6139 237.976 47.0261 237.976 53.4897C237.976 58.889 241.421 62.3755 249.211 63.1468L254.285 63.6559C257.389 63.9334 259.421 64.5659 259.421 67.4816C259.421 70.1194 257.497 72.0323 252.423 72.0323C247.768 72.0323 245.44 69.9189 244.664 67.096H236.906C237.681 73.5595 243.112 78.5732 252.5 78.5732C261.283 78.5732 267.009 73.9452 267.009 67.1267C267.009 61.0948 263.006 58.0407 256.566 57.3925H256.442ZM272.083 77.7249H279.594V30.8282H272.083V77.7249ZM222.397 47.4735H221.326V43.5086H213.816V77.7556H221.326V59.8455C221.326 53.6748 224.166 50.173 229.752 50.173H234.516V42.6449H231.707C226.525 42.6449 224.321 44.5885 222.397 47.4735Z" fill="#1D1D1B"/>
<path d="M349.101 77.7247H341.73V30.8282H349.101V77.7247Z" fill="#FF00E5"/>
<path d="M363.68 43.4779H372.648L360.13 59.9225L373 77.6471H363.861L352.85 62.2211V57.7471L363.68 43.4779Z" fill="#FF00E5"/>
<path d="M174.913 7.37213V0L221.81 2.09131e-06V7.37213H174.913Z" fill="#FF00E5"/>
<path d="M209.159 21.9488V30.9202L192.714 18.3998L174.989 31.2705V22.1315L190.416 11.1191H194.89L209.159 21.9488Z" fill="#FF00E5"/>
<path fill-rule="evenodd" clip-rule="evenodd" d="M0 77.7253H7.3721V30.8282H0V77.7253ZM30.92 43.4779H21.9486L11.1189 57.7478V62.2214L22.1313 77.6479H31.2703L18.3996 59.9229L30.92 43.4779Z" fill="#FF00E5"/>
<path d="M174.913 101.631V109.003H221.81V101.631H174.913Z" fill="#FF00E5"/>
<path d="M209.157 87.054V78.0823L192.712 90.6029L174.987 77.7323V86.8712L190.414 97.8837H194.888L209.157 87.054Z" fill="#FF00E5"/>
</svg>
