<svg width="92" height="19" viewBox="0 0 92 19" fill="none" xmlns="http://www.w3.org/2000/svg">
<path d="M41.2087 9.56247C41.2087 13.0189 39.0861 14.6561 36.4328 14.6561H34.8087V12.5914H36.3047C37.9058 12.5914 38.9717 11.7364 38.9717 9.57611C38.9717 7.41586 37.9653 6.39258 36.2589 6.39258C34.5526 6.39258 33.4409 7.39767 33.4409 9.55338V18.2262H31.2451V4.58252H33.4592V5.75133H33.7749C34.119 5.29627 34.5676 4.92962 35.0833 4.68199C35.599 4.43437 36.1668 4.31294 36.7393 4.32784C39.1821 4.32784 41.227 6.08788 41.227 9.58521L41.2087 9.56247ZM26.6841 8.67563L25.2111 8.5301C24.0537 8.4255 23.4407 8.11169 23.4407 7.4386C23.4407 6.64272 24.2229 6.18338 25.3392 6.18338C26.4554 6.18338 27.2331 6.72913 27.2971 7.50227H29.4152C29.3329 5.53303 27.7912 4.31874 25.3483 4.31874C22.9054 4.31874 21.2311 5.61944 21.2311 7.52501C21.2311 9.11677 22.2421 10.1446 24.5386 10.372L26.0345 10.5221C26.9494 10.6039 27.5487 10.7904 27.5487 11.6499C27.5487 12.4276 26.9815 12.9916 25.4855 12.9916C24.1131 12.9916 23.4269 12.3685 23.1982 11.5363H20.9109C21.1396 13.4418 22.7407 14.9199 25.5084 14.9199C28.0977 14.9199 29.7857 13.5555 29.7857 11.5453C29.7857 9.76712 28.6055 8.86664 26.707 8.67563H26.6841ZM49.8183 11.5363C49.6091 11.9747 49.2732 12.3412 48.8536 12.589C48.434 12.8369 47.9496 12.9549 47.4623 12.9279C45.8429 12.9279 44.6397 11.8819 44.6397 9.61705C44.6397 7.46134 45.756 6.26979 47.4852 6.26979C47.8051 6.24261 48.1272 6.28201 48.4309 6.38548C48.7346 6.48896 49.0133 6.65423 49.2492 6.87076C49.485 7.08729 49.6729 7.35031 49.8009 7.64306C49.9288 7.93581 49.9939 8.25185 49.9921 8.57103H46.0076V10.1628H52.1605V9.11677C52.1605 6.20612 50.2254 4.31874 47.4623 4.31874C44.8913 4.31874 42.4302 6.05604 42.4302 9.61705C42.4302 13.178 44.8913 14.9199 47.4623 14.9199C48.495 14.9546 49.5087 14.6383 50.3362 14.0232C51.1638 13.408 51.7556 12.5308 52.0141 11.5363H49.8183ZM15.0507 4.31874C12.6307 4.31874 10.8191 5.57851 10.6087 7.50227H12.9463C13.1156 6.7928 13.7698 6.26979 15.0095 6.26979C16.6107 6.26979 17.1413 7.10661 17.1413 8.12988V11.5863C16.7796 12.0408 16.3224 12.4114 15.8017 12.6722C15.281 12.933 14.7094 13.0777 14.1266 13.0962C13.0287 13.0962 12.2967 12.5732 12.2967 11.6318C12.2967 10.6903 12.8869 10.1628 14.0214 10.1628H15.7918V8.57103H13.9619C11.4321 8.57103 10.0186 9.8308 10.0186 11.7546C10.0186 13.5737 11.391 14.9381 13.6417 14.9381C14.8006 14.9156 15.9222 14.527 16.844 13.8284H17.1596V14.6879H19.3509V7.90703C19.3509 5.41479 17.6445 4.3051 15.0095 4.3051L15.0507 4.31874ZM0 14.6561H2.21414V0.830509H0V14.6561ZM9.2866 4.55978H6.59212L3.33952 8.76658V10.0855L6.64701 14.6334H9.39182L5.52621 9.40784L9.2866 4.55978ZM89.1697 4.55978L87.3398 8.55738C86.927 9.36882 86.596 10.2189 86.3517 11.0951H86.036C85.7774 10.2277 85.4389 9.38583 85.025 8.58012L83.1951 4.55978H80.7523L85.0113 13.6283L82.9024 18.1762H85.2629L91.5851 4.5325L89.1697 4.55978ZM80.2948 4.55978H77.5866L74.3614 8.76658V10.0855L77.6689 14.6334H80.4137L76.5344 9.40784L80.2948 4.55978ZM66.4427 8.65289L64.9696 8.50736C63.8122 8.40276 63.1992 8.08895 63.1992 7.41586C63.1992 6.61998 63.9769 6.16064 65.0977 6.16064C66.2185 6.16064 66.9916 6.70639 67.0557 7.47953H69.1829C69.1005 5.51029 67.5589 4.296 65.116 4.296C62.6731 4.296 60.9988 5.5967 60.9988 7.50227C60.9988 9.09403 62.0144 10.1219 64.3109 10.3493L65.8068 10.4993C66.7217 10.5812 67.321 10.7677 67.321 11.6272C67.321 12.4049 66.7537 12.9688 65.2578 12.9688C63.8854 12.9688 63.1992 12.3458 62.9705 11.5135H60.6831C60.9119 13.4191 62.513 14.8972 65.2807 14.8972C67.87 14.8972 69.558 13.5328 69.558 11.5226C69.558 9.74438 68.3777 8.8439 66.4792 8.65289H66.4427ZM71.0539 14.647H73.2681V0.821411H71.0539V14.647ZM56.4058 5.72859H56.0902V4.55978H53.876V14.6561H56.0902V9.376C56.0902 7.55684 56.9273 6.52448 58.5742 6.52448H59.9786V4.3051H59.1506C57.6227 4.3051 56.9731 4.87814 56.4058 5.72859Z" fill="#1D1D1B"/>
</svg>
