<svg width="233" height="82" viewBox="0 0 233 82" fill="none" xmlns="http://www.w3.org/2000/svg">
<path d="M11.3469 9.03821C8.60783 9.03821 6.33954 10.5361 5.0984 12.5476V0.992188H1.46057V31.8067H4.88441V28.8109H5.31239C6.72473 30.9936 8.95022 32.3203 11.6465 32.3203C16.6111 32.3203 20.2917 28.1689 20.2917 20.6793C20.2917 13.1468 16.5255 9.03821 11.3469 9.03821ZM10.8333 29.1105C7.45229 29.1105 5.0984 26.2858 5.0984 20.6793C5.0984 15.0727 7.45229 12.2481 10.8333 12.2481C14.2144 12.2481 16.5683 15.0727 16.5683 20.6793C16.5683 26.2858 14.2144 29.1105 10.8333 29.1105Z" fill="#1D1D1B"/>
<path d="M43.5999 31.8067V28.5969H35.0403V18.7961C35.0403 14.9871 36.795 12.5904 40.4328 12.5904H44.0278V9.2522H40.5184C37.8649 9.2522 36.1958 10.3649 35.2543 12.1625H34.8263V9.55178H26.4807V12.7616H31.4024V28.5969H25.8387V31.8067H43.5999Z" fill="#1D1D1B"/>
<path d="M61.6439 5.18639V1.12058H57.4497V5.18639H61.6439ZM67.55 31.8067V28.5969H61.3443V9.55178H52.3567V12.7616H57.7065V28.5969H51.0728V31.8067H67.55Z" fill="#1D1D1B"/>
<path d="M78.4468 31.8067V18.3682C78.4468 14.5591 80.5011 12.2481 83.8393 12.2481C86.8352 12.2481 88.7183 14.1312 88.7183 17.5122V31.8067H92.3561V16.9558C92.3561 12.0769 89.3603 9.03821 84.8237 9.03821C82.1274 9.03821 80.0303 10.0654 78.6608 11.9485H78.2328V9.55178H74.8089V31.8067H78.4468Z" fill="#1D1D1B"/>
<path d="M111.171 9.55178C110.058 9.2094 108.774 9.03821 107.404 9.03821C102.14 9.03821 98.4167 11.5633 98.4167 16.5279C98.4167 20.8932 101.327 23.3755 105.607 23.9319V27.3985H104.152C99.7434 27.3985 97.0472 29.7952 97.0472 33.861C97.0472 37.9268 99.7434 40.3663 104.152 40.3663H110.657C115.065 40.3663 117.761 37.9268 117.761 33.861C117.761 29.7952 115.065 27.3985 110.657 27.3985H109.245V23.8891C113.524 23.3755 116.392 20.8932 116.392 16.5279C116.392 14.9443 116.007 13.6176 115.322 12.5476H118.874V9.55178H111.171ZM107.404 20.8932C104.237 20.8932 102.055 19.5665 102.055 16.5279C102.055 13.4892 104.237 12.1625 107.404 12.1625C110.571 12.1625 112.754 13.4892 112.754 16.5279C112.754 19.5665 110.571 20.8932 107.404 20.8932ZM114.124 33.861C114.124 35.9153 112.754 37.2421 110.272 37.2421H104.537C102.055 37.2421 100.685 35.9153 100.685 33.861C100.685 31.8067 102.055 30.5228 104.537 30.5228H110.272C112.754 30.5228 114.124 31.8067 114.124 33.861Z" fill="#1D1D1B"/>
<path d="M149.441 32.3203C155.176 32.3203 159.285 28.1261 159.285 20.6793C159.285 13.2324 155.176 9.03821 149.441 9.03821C143.706 9.03821 139.598 13.2324 139.598 20.6793C139.598 28.1261 143.706 32.3203 149.441 32.3203ZM149.441 29.1105C145.846 29.1105 143.321 26.243 143.321 20.6793C143.321 15.1155 145.846 12.2481 149.441 12.2481C153.036 12.2481 155.561 15.1155 155.561 20.6793C155.561 26.243 153.036 29.1105 149.441 29.1105Z" fill="#1D1D1B"/>
<path d="M168.684 31.8067V18.3682C168.684 14.5591 170.738 12.2481 174.076 12.2481C177.072 12.2481 178.955 14.1312 178.955 17.5122V31.8067H182.593V16.9558C182.593 12.0769 179.597 9.03821 175.061 9.03821C172.364 9.03821 170.267 10.0654 168.898 11.9485H168.47V9.55178H165.046V31.8067H168.684Z" fill="#1D1D1B"/>
<path d="M20.2917 58.3565H10.4481V52.7928H6.81032V58.3565H0.390625V61.4807H6.81032V74.3629C6.81032 78.5571 9.24981 80.6114 13.0588 80.6114H20.2917V77.4016H13.9576C11.4753 77.4016 10.4481 76.2888 10.4481 73.8922V61.4807H20.2917V58.3565Z" fill="#1D1D1B"/>
<path d="M29.6905 80.6114V67.1729C29.6905 63.3639 31.7448 61.0528 35.0831 61.0528C38.0789 61.0528 39.962 62.9359 39.962 66.3169V80.6114H43.5999V65.7606C43.5999 60.8816 40.604 57.8429 36.0674 57.8429C33.3711 57.8429 31.3596 58.8701 30.1185 60.5392H29.6905V49.7969H26.0527V80.6114H29.6905Z" fill="#1D1D1B"/>
<path d="M69.0479 68.1144C69.0479 62.0371 65.1105 57.8429 59.4612 57.8429C53.5123 57.8429 49.3609 62.0371 49.3609 69.484C49.3609 76.9308 53.5551 81.125 59.4612 81.125C64.169 81.125 67.764 78.8139 68.6199 74.5341H65.0249C64.3402 76.674 62.2859 77.9152 59.4612 77.9152C55.9946 77.9152 53.4695 75.4757 53.1271 70.6823H69.0479V68.1144ZM59.4612 61.0528C62.7994 61.0528 65.2817 63.3639 65.4101 67.5581H53.2127C53.7263 63.2355 56.1657 61.0528 59.4612 61.0528Z" fill="#1D1D1B"/>
<path d="M108.389 80.6114V77.4016H101.541V61.5663H109.673V58.3565H101.541V56.5162C101.541 54.1195 102.568 53.0068 105.093 53.0068H110.101V49.7969H104.152C100.385 49.7969 97.9031 51.8512 97.9031 56.0454V58.3565H92.1254V61.5663H97.9031V77.4016H92.1254V80.6114H108.389Z" fill="#1D1D1B"/>
<path d="M123.822 81.125C126.518 81.125 128.615 80.0979 129.985 78.2148H130.413V80.6114H133.837V58.3565H130.199V71.7951C130.199 75.6041 128.145 77.9152 124.806 77.9152C121.81 77.9152 119.927 76.0321 119.927 72.651V58.3565H116.29V73.2074C116.29 78.0864 119.285 81.125 123.822 81.125Z" fill="#1D1D1B"/>
<path d="M159.285 58.3565H149.441V52.7928H145.803V58.3565H139.384V61.4807H145.803V74.3629C145.803 78.5571 148.243 80.6114 152.052 80.6114H159.285V77.4016H152.951C150.468 77.4016 149.441 76.2888 149.441 73.8922V61.4807H159.285V58.3565Z" fill="#1D1D1B"/>
<path d="M172.578 81.125C175.275 81.125 177.372 80.0979 178.741 78.2148H179.169V80.6114H182.593V58.3565H178.955V71.7951C178.955 75.6041 176.901 77.9152 173.563 77.9152C170.567 77.9152 168.684 76.0321 168.684 72.651V58.3565H165.046V73.2074C165.046 78.0864 168.042 81.125 172.578 81.125Z" fill="#1D1D1B"/>
<path d="M206.971 80.6114V77.4016H198.411V67.6009C198.411 63.7918 200.166 61.3952 203.804 61.3952H207.399V58.0569H203.89C201.236 58.0569 199.567 59.1697 198.625 60.9672H198.197V58.3565H189.852V61.5663H194.774V77.4016H189.21V80.6114H206.971Z" fill="#1D1D1B"/>
<path d="M232.419 68.1144C232.419 62.0371 228.482 57.8429 222.832 57.8429C216.883 57.8429 212.732 62.0371 212.732 69.484C212.732 76.9308 216.926 81.125 222.832 81.125C227.54 81.125 231.135 78.8139 231.991 74.5341H228.396C227.711 76.674 225.657 77.9152 222.832 77.9152C219.366 77.9152 216.841 75.4757 216.498 70.6823H232.419V68.1144ZM222.832 61.0528C226.171 61.0528 228.653 63.3639 228.781 67.5581H216.584C217.097 63.2355 219.537 61.0528 222.832 61.0528Z" fill="#1D1D1B"/>
</svg>
